<?xml version="1.0" encoding="utf-8"?>
<!-- Generator: Adobe Illustrator 19.2.1, SVG Export Plug-In . SVG Version: 6.00 Build 0)  -->
<svg version="1.1" id="layer" xmlns="http://www.w3.org/2000/svg" xmlns:xlink="http://www.w3.org/1999/xlink" x="0px" y="0px"
	 viewBox="0 0 652 652" style="enable-background:new 0 0 652 652;" xml:space="preserve">
<path d="M115.4,387.6V237.5c0-49-27-84.6-77.2-84.6c-20.2,0-39.8,8-55.8,23.9v-106h-58.2v316.8h57.6V246c0-30,19-41.1,37.4-41.1
	s38,10.4,38,41.1v141.5L115.4,387.6L115.4,387.6z M284.5,429.9V417H146.6v12.9H284.5L284.5,429.9z M481.8,387.6V70.8h-57.6v105.4
	c-15.3-17.2-33.1-23.3-56.4-23.3c-22.7,0-43.5,8-56.4,20.8c-23.3,23.3-23.9,63.1-23.9,97.4s0.6,74.8,23.3,98
	c12.9,12.9,34.3,20.8,57,20.8c24.5,0,41.7-6.7,57.6-24.5v22.1H481.8L481.8,387.6z M424.2,271.2c0,38-4.9,66.8-39.8,66.8
	s-39.2-28.8-39.2-66.8s4.3-66.2,39.2-66.2C419.3,205,424.2,233.8,424.2,271.2L424.2,271.2z M718.9,387.6V235
	c0-54.5-33.7-82.1-98.7-82.1c-38.6,0-60.7,7.4-83.3,31.9l36.8,36.2c12.3-14.1,22.1-19,44.7-19c30.6,0,42.9,11,42.9,36.8v11.6h-55.1
	c-53.9,0-79,30-79,67.4c0,20.2,6.7,39.2,19,52.1c14.1,14.1,33.1,20.2,59.4,20.2c27,0,41.7-6.7,57-22.1v20.2h56.4V387.6z
	 M660.7,301.8c0,14.1-2.5,23.3-8.6,29.4c-10.4,9.8-20.2,11-36.8,11c-22.7,0-33.1-10.4-33.1-27c0-16.5,11.6-26.3,32.5-26.3h46V301.8
	L660.7,301.8z M-53.1,514.4v-33.1h-3.1V496h-15.9v-14.7h-3.1v32.5h3.7v-14.7h15.3v14.7h3.1V514.4z M-20.1,497.9
	c0-6.7,0-10.4-3.1-13.5c-1.8-1.8-4.9-3.1-8-3.1s-6.1,1.2-8.6,3.7c-3.1,3.1-3.1,6.1-3.1,13.5c0,7.4,0,10.4,3.1,13.5
	c2.5,1.2,4.9,2.5,8.6,2.5c3.7,0,6.1-1.2,8.6-3.7C-20.1,507.7-20.1,504.6-20.1,497.9L-20.1,497.9z M-23.1,497.9c0,6.7,0,9.2-2.5,11
	c-1.2,1.2-3.7,2.5-5.5,2.5c-2.5,0-4.3-0.6-5.5-2.5c-1.8-1.8-2.5-4.3-2.5-11s0-9.2,2.5-11c1.2-1.2,3.7-2.5,5.5-2.5
	c2.5,0,4.3,0.6,5.5,2.5C-23.7,488.7-23.1,491.1-23.1,497.9L-23.1,497.9z M11.8,504.6H8.1c-0.6,4.3-3.7,6.7-8,6.7
	c-2.5,0-4.3-0.6-5.5-2.5c-1.8-1.8-2.5-4.3-2.5-11s0-9.2,2.5-11c1.2-1.2,3.7-2.5,5.5-2.5c4.3,0,6.7,2.5,8,6.7h3.7
	c-1.2-6.1-5.5-9.8-11.6-9.8c-3.1,0-6.1,1.2-8.6,3.7c-3.1,3.1-3.1,6.1-3.1,13.5c0,7.4,0,10.4,3.1,13.5c2.5,2.5,4.9,3.7,8.6,3.7
	C6.3,514.4,10.6,510.8,11.8,504.6L11.8,504.6z M43.1,514.4v-33.1h-3.7V496H24.1v-14.7h-3.7v32.5h3.7v-14.7h15.3v14.7h3.7V514.4z
	 M74.3,505.2c0-2.5-1.2-4.9-2.5-6.7c-1.2-1.2-3.1-1.8-6.1-2.5l-3.7-0.6c-1.8,0-3.7-0.6-4.3-1.8c-1.2-0.6-1.2-2.5-1.2-3.7
	c0-3.7,2.5-6.1,6.7-6.1c3.7,0,5.5,1.2,7.4,3.1l2.5-2.5c-3.1-2.5-5.5-3.7-9.8-3.7c-6.7,0-10.4,3.7-10.4,9.2c0,2.5,0.6,4.9,2.5,6.1
	c1.2,1.2,3.7,1.8,6.1,2.5l3.7,0.6c2.5,0.6,3.1,0.6,4.3,1.8c1.2,1.2,1.8,2.5,1.8,4.3c0,3.7-3.1,6.1-8,6.1c-3.7,0-6.1-0.6-9.2-3.7
	l-2.5,2.5c3.1,3.1,6.1,4.3,11,4.3C70,514.4,74.3,510.8,74.3,505.2L74.3,505.2z M104.3,504.6h-3.7c-0.6,4.3-3.7,6.7-8,6.7
	c-2.5,0-4.3-0.6-5.5-2.5c-1.8-1.8-1.8-4.3-1.8-11s0-9.2,2.5-11c1.2-1.2,3.7-2.5,5.5-2.5c4.3,0,6.7,2.5,8,6.7h3.7
	c-1.2-6.1-5.5-9.8-11.6-9.8c-3.1,0-6.1,1.2-8.6,3.7c-3.1,3.1-3.1,6.1-3.1,13.5c0,7.4,0,10.4,3.1,13.5c2.5,2.5,4.9,3.7,8.6,3.7
	C98.8,514.4,103.7,510.8,104.3,504.6L104.3,504.6z M136.2,514.4v-33.1h-3.7V496h-15.3v-14.7h-3.7v32.5h3.7v-14.7h15.3v14.7h3.7
	V514.4z M169.9,503.4v-22.1h-3.7v21.4c0,4.9-3.1,8-8,8c-4.9,0-8-3.1-8-8v-21.4h-3.7v22.1c0,6.7,4.9,11,11.6,11
	C165,514.4,169.9,510.1,169.9,503.4L169.9,503.4z M201.1,514.4v-3.1h-16.5v-30h-3.7v32.5h20.2V514.4z M229.3,514.4v-3.1h-16.5v-11.6
	h14.1v-3.1h-14.1V485h16.5v-3.7h-20.2v32.5h20.2V514.4z M279,497.3c0-4.3,0-9.8-3.1-12.9c-1.8-1.8-4.9-3.1-8.6-3.1h-11v32.5h11
	c3.7,0,6.1-1.2,8.6-3.1C279,507.7,279,502.2,279,497.3L279,497.3z M275.3,497.3c0,4.3,0,8.6-2.5,11c-1.8,1.8-3.7,2.5-6.7,2.5h-7.4
	v-26.3h7.4c2.5,0,4.9,0.6,6.7,2.5C275.9,489.3,275.3,493.6,275.3,497.3L275.3,497.3z M311.4,514.4l-11.6-33.1h-3.1l-12.3,32.5h3.7
	l2.5-7.4h14.1l2.5,7.4h4.3V514.4z M304.1,504h-12.3l6.1-17.2L304.1,504L304.1,504z M342.7,514.4l-8-14.7c4.3-0.6,7.4-4.3,7.4-8.6
	c0-5.5-4.3-9.2-9.8-9.2H320v32.5h3.7v-14.7h8l7.4,14.7H342.7L342.7,514.4z M338.4,490.5c0,4.3-2.5,6.1-6.7,6.1h-8.6v-12.3h8.6
	C335.3,484.4,338.4,486.9,338.4,490.5L338.4,490.5z M380.7,514.4v-33.1H377l-10.4,23.3l-10.4-23.3h-3.7v32.5h3.7v-25.1l9.2,19.6h3.1
	l9.2-19.6v25.1h3.1V514.4z M411.9,505.2c0-2.5-1.2-4.9-2.5-6.7c-1.2-1.2-3.1-1.8-6.1-2.5l-3.7-0.6c-1.8,0-3.7-0.6-4.3-1.8
	c-1.2-0.6-1.2-2.5-1.2-3.7c0-3.7,2.5-6.1,6.7-6.1c3.7,0,5.5,1.2,7.4,3.1l2.5-2.5c-3.1-2.5-5.5-3.7-9.8-3.7c-6.7,0-10.4,3.7-10.4,9.2
	c0,2.5,0.6,4.9,2.5,6.1c1.2,1.2,3.7,1.8,6.1,2.5l3.7,0.6c2.5,0.6,3.1,0.6,4.3,1.8c1.2,1.2,1.8,2.5,1.8,4.3c0,3.7-3.1,6.1-8,6.1
	c-3.7,0-6.1-0.6-9.2-3.7l-2.5,2.5c3.1,3.1,6.1,4.3,11,4.3C407.6,514.4,411.9,510.8,411.9,505.2L411.9,505.2z M439.5,484.4v-3.1
	h-22.7v3.1h9.2v29.4h3.7v-29.4H439.5L439.5,484.4z M468.9,514.4L456.7,482h-3.1l-12.3,32.5h3.7l2.5-7.4h14.1l2.5,7.4H468.9
	L468.9,514.4z M461.6,504h-12.3l6.1-17.2L461.6,504L461.6,504z M499.6,497.3c0-4.3,0-9.8-3.1-12.9c-1.8-1.8-4.9-3.1-8.6-3.1h-11
	v32.5h11c3.7,0,6.1-1.2,8.6-3.1C499.6,507.7,499.6,502.2,499.6,497.3L499.6,497.3z M495.9,497.3c0,4.3,0,8.6-2.5,11
	c-1.8,1.8-3.7,2.5-6.7,2.5h-7.4v-26.3h7.4c2.5,0,4.9,0.6,6.7,2.5C495.9,489.3,495.9,493.6,495.9,497.3L495.9,497.3z M527.7,484.4
	v-3.1h-22.7v3.1h9.2v29.4h3.7v-29.4H527.7L527.7,484.4z M-52.5,558.5v-22.1h-3.7v21.4c0,4.9-3.1,8-8,8s-8-3.1-8-8v-21.4h-3.7v22.1
	c0,6.7,4.9,11,11.6,11S-52.5,565.3-52.5,558.5L-52.5,558.5z M-18.2,569.6v-33.1h-3.7v26.3l-17.2-26.3h-3.1V569h3.7v-26.3l17.2,26.3
	h3.1V569.6z M-2.9,569.6v-33.1h-3.7V569h3.7V569.6z M30.2,536.5h-3.7l-8.6,26.3l-8.6-26.3H5.7l11,32.5h3.1L30.2,536.5L30.2,536.5z
	 M59,569.6v-3.1H42.4v-11.6h14.1v-3.1H42.4v-11.6H59v-3.7H38.8V569H59V569.6z M90.9,569.6l-8-14.7c4.3-0.6,7.4-4.3,7.4-8.6
	c0-5.5-4.3-9.2-9.8-9.2H68.2v32.5h3.7v-14.7h7.4l7.4,14.7H90.9L90.9,569.6z M86.6,545.7c0,4.3-2.5,6.1-6.7,6.1h-8.6v-12.3h8.6
	C84.1,539.6,86.6,542,86.6,545.7L86.6,545.7z M119.7,560.4c0-2.5-1.2-4.9-3.1-6.7c-1.2-1.2-3.1-1.8-6.1-2.5l-3.7-0.6
	c-1.8,0-3.7-0.6-4.3-1.8c-1.2-0.6-1.2-2.5-1.2-3.7c0-3.7,2.5-6.1,6.7-6.1c3.7,0,5.5,1.2,7.4,3.1l2.5-2.5c-3.1-2.5-5.5-3.7-9.8-3.7
	c-6.7,0-10.4,3.7-10.4,9.2c0,2.5,0.6,4.9,2.5,6.1c1.2,1.2,3.7,1.8,6.1,2.5l3.7,0.6c2.5,0.6,3.1,0.6,4.3,1.8c1.2,1.2,1.8,2.5,1.8,4.3
	c0,3.7-3.1,6.1-8,6.1c-3.7,0-6.1-0.6-9.2-3.7l-2.5,2.5c3.1,3.1,6.1,4.3,11,4.3C115.4,569.6,119.7,565.9,119.7,560.4L119.7,560.4z
	 M133.1,569.6v-33.1h-3.7V569h3.7V569.6z M164.4,539.6v-3.1h-22.7v3.1h9.2V569h3.7v-29.4H164.4L164.4,539.6z M193.2,536.5h-3.7
	l-7.4,15.9l-8-15.9h-3.7l9.8,19V569h3.1v-13.5L193.2,536.5L193.2,536.5z M237.3,553c0-6.7,0-10.4-3.1-13.5c-2.5-2.5-4.9-3.7-8.6-3.7
	c-3.1,0-6.1,1.2-8.6,3.7c-3.1,3.1-3.1,6.7-3.1,13.5s0,10.4,3.1,13.5c2.5,2.5,4.9,3.7,8.6,3.7c3.1,0,6.1-1.2,8.6-3.7
	C237.3,562.8,237.3,559.8,237.3,553L237.3,553z M233.6,553c0,6.7,0,9.2-2.5,11c-1.2,1.2-3.7,2.5-5.5,2.5c-2.5,0-4.3-0.6-5.5-2.5
	c-1.8-1.8-2.5-4.3-2.5-11s0-9.2,2.5-11c1.2-1.2,3.7-2.5,5.5-2.5c2.5,0,4.3,0.6,5.5,2.5C233.6,543.8,233.6,546.3,233.6,553L233.6,553
	z M267.3,539.6v-3.1h-20.2V569h3.7v-14.1h14.1v-3.1h-14.1v-12.3H267.3L267.3,539.6z M311.4,569.6l-12.3-32.5h-3.1l-12.3,32.5h3.7
	l2.5-7.4h14.1l2.5,7.4H311.4L311.4,569.6z M304.1,559.2h-12.3L298,542L304.1,559.2L304.1,559.2z M341.5,546.3
	c0-6.1-4.3-9.8-10.4-9.8h-12.3V569h3.7v-13.5h8.6C337.2,556.1,341.5,551.8,341.5,546.3L341.5,546.3z M337.8,546.3
	c0,4.3-3.1,6.7-6.7,6.7h-8.6v-12.9h8.6C335.3,539.6,337.8,542,337.8,546.3L337.8,546.3z M371.5,546.3c0-6.1-4.3-9.8-10.4-9.8h-12.3
	V569h3.7v-13.5h8.6C367.2,556.1,371.5,551.8,371.5,546.3L371.5,546.3z M367.8,546.3c0,4.3-3.1,6.7-6.7,6.7h-8.6v-12.9h8.6
	C365.4,539.6,367.8,542,367.8,546.3L367.8,546.3z M399.7,569.6v-3.1h-16.5v-30h-3.7V569h20.2V569.6z M410.7,569.6v-33.1H407V569h3.7
	V569.6z M442.6,569.6v-3.1H426v-11.6h14.1v-3.1H426v-11.6h16.5v-3.7h-20.2V569h20.2V569.6z M474.4,552.4c0-4.3,0-9.8-3.1-12.9
	c-1.8-1.8-4.9-3.1-8.6-3.1h-11V569h11c3.7,0,6.1-1.2,8.6-3.1C474.4,562.8,474.4,557.3,474.4,552.4L474.4,552.4z M470.8,552.4
	c0,4.3,0,8.6-2.5,11c-1.8,1.8-3.7,2.5-6.7,2.5h-7.4v-26.3h7.4c2.5,0,4.9,0.6,6.7,2.5C470.8,544.5,470.8,548.7,470.8,552.4
	L470.8,552.4z M520.4,560.4c0-2.5-1.2-4.9-2.5-6.7c-1.2-1.2-3.1-1.8-6.1-2.5h-3.7c-1.8,0-3.7-0.6-4.3-1.8c-1.2-0.6-1.2-2.5-1.2-3.7
	c0-3.7,2.5-6.1,6.7-6.1c3.7,0,5.5,1.2,7.4,3.1l2.5-2.5c-3.1-2.5-5.5-3.7-9.8-3.7c-6.7,0-10.4,3.7-10.4,9.2c0,2.5,0.6,4.9,2.5,6.1
	c1.2,1.2,3.7,1.8,6.1,2.5l3.7,0.6c2.5,0.6,3.1,0.6,4.3,1.8c1.2,1.2,1.8,2.5,1.8,4.3c0,3.7-3.1,6.1-8,6.1c-3.7,0-6.1-0.6-9.2-3.7
	l-2.5,2.5c3.1,3.1,6.1,4.3,11,4.3C516.1,569.6,520.4,565.9,520.4,560.4L520.4,560.4z M550.4,559.8h-3.7c-0.6,4.3-3.7,6.7-8,6.7
	c-2.5,0-4.3-0.6-5.5-2.5c-1.8-1.8-2.5-4.3-2.5-11s0-9.2,2.5-11c1.2-1.2,3.7-2.5,5.5-2.5c4.3,0,6.7,2.5,8,6.7h3.7
	c-1.2-6.1-5.5-9.8-11.6-9.8c-3.1,0-6.1,1.2-8.6,3.7c-3.1,3.1-3.1,6.1-3.1,13.5c0,7.4,0,10.4,3.1,13.5c2.5,2.5,4.9,3.7,8.6,3.7
	C544.9,569.6,549.2,565.9,550.4,559.8L550.4,559.8z M563.9,569.6v-33.1h-3.7V569h3.7V569.6z M595.8,569.6v-3.1h-16.5v-11.6h14.1
	v-3.1h-14.1v-11.6h16.5v-3.7h-20.2V569h20.2V569.6z M628.8,569.6v-33.1h-3.7v26.3L608,536.5h-3.1V569h3.7v-26.3l17.2,26.3h3.1V569.6
	z M660.7,559.8H657c-0.6,4.3-3.7,6.7-8,6.7c-2.5,0-4.3-0.6-5.5-2.5c-1.8-1.8-2.5-4.3-2.5-11s0-9.2,2.5-11c1.2-1.2,3.7-2.5,5.5-2.5
	c4.3,0,6.7,2.5,8,6.7h3.7c-1.2-6.1-5.5-9.8-11.6-9.8c-3.1,0-6.1,1.2-8.6,3.7c-3.1,3.1-3.1,6.1-3.1,13.5c0,7.4,0,10.4,3.1,13.5
	c2.5,2.5,4.9,3.7,8.6,3.7C655.2,569.6,659.5,565.9,660.7,559.8L660.7,559.8z M689.5,569.6v-3.1H673v-11.6h14.1v-3.1H673v-11.6h16.5
	v-3.7h-20.2V569h20.2V569.6z M718.9,560.4c0-2.5-1.2-4.9-3.1-6.7c-1.2-1.2-3.1-1.8-6.1-2.5l-3.7-0.6c-1.8,0-3.7-0.6-4.3-1.8
	c-1.2-0.6-1.2-2.5-1.2-3.7c0-3.7,2.5-6.1,6.7-6.1c3.7,0,5.5,1.2,7.4,3.1l2.5-2.5c-3.1-2.5-5.5-3.7-9.8-3.7c-6.7,0-10.4,3.7-10.4,9.2
	c0,2.5,0.6,4.9,2.5,6.1c1.2,1.2,3.7,1.8,6.1,2.5l3.7,0.6c2.5,0.6,3.1,0.6,4.3,1.8c1.2,1.2,1.8,2.5,1.8,4.3c0,3.7-3.1,6.1-8,6.1
	c-3.7,0-6.1-0.6-9.2-3.7l-2.5,2.5c3.1,3.1,6.1,4.3,11,4.3C714,569.6,718.9,565.9,718.9,560.4L718.9,560.4z"/>
</svg>
