<?xml version="1.0" encoding="UTF-8" standalone="no"?>
<!DOCTYPE svg PUBLIC "-//W3C//DTD SVG 1.1//EN" "http://www.w3.org/Graphics/SVG/1.1/DTD/svg11.dtd">
<svg width="100%" height="100%" viewBox="0 0 296 296" version="1.1" xmlns="http://www.w3.org/2000/svg" xmlns:xlink="http://www.w3.org/1999/xlink" xml:space="preserve" xmlns:serif="http://www.serif.com/" style="fill-rule:evenodd;clip-rule:evenodd;stroke-linejoin:round;stroke-miterlimit:2;">
    <rect id="ArtBoard1" x="0" y="0" width="295.271" height="295.833" style="fill:none;"/>
    <clipPath id="_clip1">
        <rect id="ArtBoard11" serif:id="ArtBoard1" x="0" y="0" width="295.271" height="295.833"/>
    </clipPath>
    <g clip-path="url(#_clip1)">
        <g transform="matrix(4.16667,0,0,4.16667,0,0)">
            <rect x="13.331" y="12.367" width="57.543" height="48.167" style="fill:white;"/>
            <path d="M0,71L0,0.135L70.865,0.135L70.865,14.308L14.172,14.308L14.172,56.827L70.865,56.827L70.865,71L0,71Z" style="fill:rgb(0,73,144);"/>
            <path d="M41.252,18.49L44.221,18.49L44.221,27.979C44.221,29.059 44.262,29.308 44.47,29.702C44.802,30.346 45.487,30.699 46.442,30.699C47.709,30.699 48.519,30.076 48.643,29.017C48.685,28.706 48.685,28.498 48.685,27.729L48.685,18.49L51.633,18.49L51.633,28.207C51.633,29.578 51.612,29.848 51.405,30.47C51.031,31.612 49.619,33.19 46.504,33.19C44.304,33.19 42.705,32.526 41.875,31.259C41.397,30.512 41.252,29.931 41.252,28.54L41.252,18.49Z" style="fill:rgb(0,73,144);fill-rule:nonzero;"/>
            <path d="M54.54,18.49L57.758,18.49L60.52,24.262C61.246,25.799 61.807,27.314 62.098,28.353C61.994,27.231 61.89,25.383 61.869,24.387L61.807,18.49L64.568,18.49L64.568,32.92L61.537,32.92L59.066,27.397C58.277,25.591 57.384,23.556 57.114,22.664C57.218,23.847 57.239,25.549 57.26,26.754L57.343,32.92L54.54,32.92L54.54,18.49Z" style="fill:rgb(0,73,144);fill-rule:nonzero;"/>
            <rect x="67.838" y="18.49" width="3.032" height="14.43" style="fill:rgb(0,73,144);fill-rule:nonzero;"/>
            <path d="M41.214,38.475L44.287,38.475L45.532,44.164C46.135,46.863 46.301,48.918 46.301,48.918C46.363,48.358 46.612,46.302 47.048,44.309L48.335,38.475L51.512,38.475L52.841,44.932C53.111,46.281 53.464,48.752 53.464,48.752C53.505,48.295 54.004,45.16 54.253,43.956L55.437,38.475L58.488,38.475L55.001,53.029L51.824,53.029L50.536,47.153C50.038,44.911 49.872,43.084 49.851,42.959C49.851,42.959 49.561,44.994 49.145,47.112L47.962,53.029L44.66,53.029L41.214,38.475Z" style="fill:rgb(0,73,144);fill-rule:nonzero;"/>
            <path d="M60.481,38.49L63.45,38.49L63.45,47.979C63.45,49.059 63.492,49.308 63.699,49.702C64.032,50.346 64.717,50.699 65.672,50.699C66.939,50.699 67.748,50.076 67.873,49.017C67.914,48.706 67.914,48.498 67.914,47.729L67.914,38.49L70.862,38.49L70.862,48.207C70.862,49.578 70.842,49.848 70.634,50.47C70.26,51.612 68.849,53.19 65.734,53.19C63.533,53.19 61.935,52.526 61.104,51.259C60.627,50.512 60.481,49.931 60.481,48.54L60.481,38.49Z" style="fill:rgb(0,73,144);fill-rule:nonzero;"/>
            <path d="M63.449,34.138C64.339,34.138 65.066,34.846 65.066,35.718C65.066,36.608 64.339,37.335 63.467,37.335C62.577,37.335 61.869,36.608 61.869,35.718C61.869,34.846 62.577,34.138 63.449,34.138Z" style="fill:rgb(0,73,144);fill-rule:nonzero;"/>
            <path d="M67.934,34.138C68.824,34.138 69.551,34.846 69.551,35.718C69.551,36.608 68.824,37.335 67.952,37.335C67.062,37.335 66.354,36.608 66.354,35.718C66.354,34.846 67.062,34.138 67.934,34.138Z" style="fill:rgb(0,73,144);fill-rule:nonzero;"/>
        </g>
    </g>
</svg>
